<?xml version="1.0" ?><!DOCTYPE svg  PUBLIC '-//W3C//DTD SVG 1.0//EN'  'http://www.w3.org/TR/2001/REC-SVG-20010904/DTD/svg10.dtd'><svg height="128px" style="shape-rendering:geometricPrecision; text-rendering:geometricPrecision; image-rendering:optimizeQuality; fill-rule:evenodd; clip-rule:evenodd" version="1.0" viewBox="0 0 48689 78889" width="79px" xml:space="preserve" xmlns="http://www.w3.org/2000/svg" xmlns:xlink="http://www.w3.org/1999/xlink"><defs><style type="text/css">
   <![CDATA[
    .fil0 {fill:#E6C131}
   ]]>
  </style></defs><g id="Layer_x0020_1"><path class="fil0" d="M7487 0l33715 0c4118,0 7487,3369 7487,7487l0 63915c0,4118 -3369,7487 -7487,7487l-33715 0c-4118,0 -7487,-3369 -7487,-7487l0 -63915c0,-4118 3369,-7487 7487,-7487zm13590 48482l5957 0 0 12605 -5957 0 0 -12605zm-9713 4848l5956 0 0 7757 -5956 0 0 -7757zm20005 -14060l5956 0 0 21817 -5956 0 0 -21817zm-11455 -33825l8166 0c1886,0 1886,2850 0,2850l-8166 0c-1886,0 -1886,-2850 0,-2850zm4430 63058c2043,0 3698,1655 3698,3697 0,2042 -1655,3697 -3698,3697 -2041,0 -3697,-1655 -3697,-3697 0,-2042 1656,-3697 3697,-3697zm-17333 -54545l34667 0 0 50972 -34667 0 0 -50972z"/></g></svg>